# xmcd
#
# Track frame offsets: 
#        182
#        26492
#        45095
#        65265
#        84852
#        110367
#        128170
#        152380
#        169512
#        198447
#
# Disc length: 2992 seconds
#
# Revision: 3
# Processed by: cddbd v1.5.2PL0 Copyright (c) Steve Scherf et al.
# Submitted via: ExactAudioCopy v0.99pb5
#
DISCID=670bae0a
DTITLE=Vanessa Paradis - M&J
DYEAR=1988
DGENRE=Pop
TTITLE0=Marilyn and John (English Version)
TTITLE1=Maxou ( English version )
TTITLE2=Le Bon Dieu Est un Marin
TTITLE3=Mosquito
TTITLE4=Soldat
TTITLE5=Joe Le Taxi
TTITLE6=Cut Cut Brother
TTITLE7=Chat Ananas
TTITLE8=Scarabee
TTITLE9=Marilyn and John (French Version)
EXTD=
EXTT0=
EXTT1=
EXTT2=
EXTT3=
EXTT4=
EXTT5=
EXTT6=
EXTT7=
EXTT8=
EXTT9=
PLAYORDER=
